<mxfile host="app.diagrams.net" modified="2023-09-26T21:43:25.006Z" agent="Mozilla/5.0 (Macintosh; Intel Mac OS X 10_15_7) AppleWebKit/537.36 (KHTML, like Gecko) Chrome/117.0.0.0 Safari/537.36" version="21.8.1" etag="aY_PDpeGLyY4EUK-HAFs" type="github">
  <diagram name="Page-1" id="xWtYSua5JHVDzu-Og3l3">
    <mxGraphModel>
      <root>
        <mxCell id="0" />
        <mxCell id="1" parent="0" />
      </root>
    </mxGraphModel>
  </diagram>
</mxfile>
